<svg width="1200" height="630" viewBox="0 0 1200 630" xmlns="http://www.w3.org/2000/svg"><mask id="satori_om-id"><rect x="0" y="0" width="1200" height="630" fill="#fff"/></mask><mask id="satori_om-id-0"><rect x="0" y="0" width="1200" height="630" fill="#fff"/></mask><rect x="0" y="0" width="1200" height="630" fill="#0f172a"/><defs><pattern id="satori_pattern_id-0-0_0" x="0" y="0" width="1" height="1" patternUnits="objectBoundingBox"><linearGradient id="satori_biid-0-0_0" x1="-5.210646728907401e-16" y1="5.210646728907411e-16" x2="1.0000000000000007" y2="0.9999999999999994" spreadMethod="pad"><stop offset="0%" stop-color="rgba(56, 189, 248, 0.4)"/><stop offset="100%" stop-color="rgba(49, 46, 129, 0)"/></linearGradient><rect x="0" y="0" width="600" height="600" fill="url(#satori_biid-0-0_0)"/></pattern></defs><mask id="satori_om-id-0-0"><rect x="650" y="-150" width="600" height="600" fill="#fff"/></mask><path x="650" y="-150" width="600" height="600" fill="url(#satori_pattern_id-0-0_0)" d="M950,-150 h0 a300,300 0 0 1 300,300 v0 a300,300 0 0 1 -300,300 h0 a300,300 0 0 1 -300,-300 v0 a300,300 0 0 1 300,-300"/><defs><pattern id="satori_pattern_id-0-1_0" x="0" y="0" width="1" height="1" patternUnits="objectBoundingBox"><linearGradient id="satori_biid-0-1_0" x1="4.7369515717340015e-17" y1="1" x2="1" y2="0" spreadMethod="pad"><stop offset="0%" stop-color="rgba(167, 139, 250, 0.4)"/><stop offset="100%" stop-color="rgba(88, 28, 135, 0)"/></linearGradient><rect x="0" y="0" width="600" height="600" fill="url(#satori_biid-0-1_0)"/></pattern></defs><mask id="satori_om-id-0-1"><rect x="-50" y="180" width="600" height="600" fill="#fff"/></mask><path x="-50" y="180" width="600" height="600" fill="url(#satori_pattern_id-0-1_0)" d="M250,180 h0 a300,300 0 0 1 300,300 v0 a300,300 0 0 1 -300,300 h0 a300,300 0 0 1 -300,-300 v0 a300,300 0 0 1 300,-300"/><mask id="satori_om-id-0-2"><rect x="0" y="0" width="1200" height="630" fill="#fff"/></mask><mask id="satori_om-id-0-2-0"><rect x="60" y="60" width="1080" height="49" fill="#fff"/></mask><defs><clipPath id="satori_bc-id-0-2-0-0"><path x="60" y="60" width="170" height="49" d="M84.5,60 h121 a24.5,24.5 0 0 1 24.5,24.5 v0 a24.5,24.5 0 0 1 -24.5,24.5 h-121 a24.5,24.5 0 0 1 -24.5,-24.5 v0 a24.5,24.5 0 0 1 24.5,-24.5"/></clipPath></defs><mask id="satori_om-id-0-2-0-0"><rect x="61" y="61" width="168" height="47" fill="#fff"/><path width="170" height="49" fill="none" stroke="#000" stroke-width="2" d="M67.176,67.176 A24.5,24.5 0 0 1 84.5,60 h121 a24.5,24.5 0 0 1 24.5,24.5 v0 a24.5,24.5 0 0 1 -24.5,24.5 h-121 a24.5,24.5 0 0 1 -24.5,-24.5 v0 A24.5,24.5 0 0 1 67.176,67.176"/></mask><path x="60" y="60" width="170" height="49" fill="rgba(255, 255, 255, 0.1)" d="M84.5,60 h121 a24.5,24.5 0 0 1 24.5,24.5 v0 a24.5,24.5 0 0 1 -24.5,24.5 h-121 a24.5,24.5 0 0 1 -24.5,-24.5 v0 a24.5,24.5 0 0 1 24.5,-24.5"/><path width="170" height="49" clip-path="url(#satori_bc-id-0-2-0-0)" fill="none" stroke="rgba(255, 255, 255, 0.2)" stroke-width="2" d="M67.176,67.176 A24.5,24.5 0 0 1 84.5,60 h121 a24.5,24.5 0 0 1 24.5,24.5 v0 a24.5,24.5 0 0 1 -24.5,24.5 h-121 a24.5,24.5 0 0 1 -24.5,-24.5 v0 A24.5,24.5 0 0 1 67.176,67.176"/><mask id="satori_om-id-0-2-0-0-0"><rect x="81" y="71" width="128" height="27" fill="#fff"/></mask><g  ><path fill="#ffffff" d="M85.7 92L82.5 92L82.5 76.0L88.7 76.0Q90.5 76.0 91.8 76.6Q93.1 77.3 93.7 78.5Q94.4 79.6 94.4 81.2Q94.4 82.8 93.7 83.9Q93.1 85.1 91.8 85.7L91.8 85.7Q91.7 85.7 91.6 85.8L91.6 85.8L95.0 92L91.4 92L88.3 86.3L85.7 86.3L85.7 92ZM85.7 78.7L85.7 83.6L88.1 83.6Q89.1 83.6 89.7 83.4Q90.4 83.1 90.7 82.5Q91.0 82.0 91.0 81.2L91.0 81.2Q91.0 80.4 90.7 79.8Q90.4 79.3 89.7 79.0Q89.1 78.7 88.1 78.7L88.1 78.7L85.7 78.7ZM108.7 92L98.0 92L98.0 76.0L108.7 76.0L108.7 78.7L101.3 78.7L101.3 82.6L108.1 82.6L108.1 85.3L101.3 85.3L101.3 89.3L108.7 89.3L108.7 92ZM118.3 92.2L118.3 92.2Q116.4 92.2 115.0 91.6Q113.6 91.1 112.8 89.9Q112.0 88.7 111.9 87.0L111.9 87.0L115.1 87.0Q115.2 87.8 115.6 88.4Q116.0 88.9 116.7 89.2Q117.4 89.5 118.3 89.5L118.3 89.5Q119.2 89.5 119.8 89.2Q120.5 89.0 120.8 88.5Q121.2 88.0 121.2 87.4L121.2 87.4Q121.2 86.9 120.9 86.5Q120.6 86.1 119.9 85.9Q119.3 85.6 118.4 85.4L118.4 85.4L116.7 85.0Q114.7 84.5 113.5 83.4Q112.4 82.3 112.4 80.6L112.4 80.6Q112.4 79.2 113.1 78.1Q113.9 77.0 115.3 76.4Q116.6 75.8 118.4 75.8L118.4 75.8Q120.1 75.8 121.5 76.4Q122.8 77.0 123.5 78.1Q124.3 79.2 124.3 80.6L124.3 80.6L121.1 80.6Q121.0 79.6 120.3 79.1Q119.6 78.5 118.3 78.5L118.3 78.5Q117.5 78.5 116.9 78.8Q116.3 79.0 116.0 79.4Q115.7 79.9 115.7 80.4L115.7 80.4Q115.7 81.0 116.1 81.4Q116.4 81.8 117.0 82.0Q117.6 82.2 118.3 82.4L118.3 82.4L119.7 82.8Q120.7 83.0 121.6 83.4Q122.5 83.8 123.1 84.3Q123.8 84.9 124.1 85.7Q124.5 86.4 124.5 87.4L124.5 87.4Q124.5 88.9 123.8 90.0Q123.0 91.1 121.7 91.6Q120.3 92.2 118.3 92.2ZM138.7 92L128.0 92L128.0 76.0L138.7 76.0L138.7 78.7L131.2 78.7L131.2 82.6L138.1 82.6L138.1 85.3L131.2 85.3L131.2 89.3L138.7 89.3L138.7 92ZM145.1 92L141.5 92L147.0 76.0L151.3 76.0L156.9 92L153.2 92L152.0 88.3L146.3 88.3L145.1 92ZM147.1 85.7L151.2 85.7L150.7 84.3Q150.2 82.8 149.7 81L149.7 81Q149.4 79.9 149.1 78.6L149.1 78.6Q148.8 79.9 148.5 81.0L148.5 81.0Q148.0 82.8 147.6 84.3L147.6 84.3L147.1 85.7ZM163.2 92L160.0 92L160.0 76.0L166.2 76.0Q168.0 76.0 169.3 76.6Q170.6 77.3 171.3 78.5Q171.9 79.6 171.9 81.2Q171.9 82.8 171.2 83.9Q170.6 85.1 169.3 85.7L169.3 85.7Q169.2 85.7 169.1 85.8L169.1 85.8L172.5 92L168.9 92L165.8 86.3L163.2 86.3L163.2 92ZM163.2 78.7L163.2 83.6L165.6 83.6Q166.6 83.6 167.2 83.4Q167.9 83.1 168.2 82.5Q168.5 82.0 168.5 81.2L168.5 81.2Q168.5 80.4 168.2 79.8Q167.9 79.3 167.2 79.0Q166.6 78.7 165.6 78.7L165.6 78.7L163.2 78.7ZM182.5 92.2L182.5 92.2Q180.4 92.2 178.7 91.2Q177.0 90.3 176.0 88.4Q175.1 86.6 175.1 84.0L175.1 84.0Q175.1 81.4 176.0 79.6Q177.0 77.7 178.7 76.7Q180.4 75.8 182.5 75.8L182.5 75.8Q183.9 75.8 185.0 76.2Q186.2 76.5 187.1 77.3Q188.0 78.0 188.6 79.1Q189.2 80.1 189.4 81.5L189.4 81.5L186.1 81.5Q186.0 80.8 185.6 80.3Q185.3 79.8 184.9 79.4Q184.4 79.1 183.8 78.9Q183.2 78.7 182.6 78.7L182.6 78.7Q181.3 78.7 180.4 79.3Q179.4 79.9 178.9 81.1Q178.4 82.3 178.4 84.0L178.4 84.0Q178.4 85.7 178.9 86.9Q179.4 88.1 180.4 88.7Q181.3 89.3 182.6 89.3L182.6 89.3Q183.2 89.3 183.8 89.1Q184.4 88.9 184.9 88.6Q185.3 88.2 185.6 87.7Q186.0 87.2 186.1 86.5L186.1 86.5L189.4 86.5Q189.3 87.6 188.7 88.7Q188.2 89.7 187.3 90.5Q186.4 91.3 185.2 91.8Q184.0 92.2 182.5 92.2ZM196.2 92L192.9 92L192.9 76.0L196.2 76.0L196.2 82.5L203.1 82.5L203.1 76.0L206.4 76.0L206.4 92L203.1 92L203.1 85.2L196.2 85.2L196.2 92Z "/></g><mask id="satori_om-id-0-2-1"><rect x="60" y="230" width="1080" height="128" fill="#fff"/></mask><clipPath id="satori_cp-id-0-2-1-0"><rect x="60" y="230" width="1000" height="128"/></clipPath><mask id="satori_om-id-0-2-1-0"><rect x="60" y="230" width="1000" height="128" fill="#fff"/></mask><g mask="url(#satori_om-id-0-2-1-0)" clip-path="url(#satori_cp-id-0-2-1-0)"><path fill="#ffffff" d="M72.2 283L63.7 283L63.7 242.3L73.0 242.3L85.9 262.9Q86.9 264.5 87.9 266.3Q88.9 268.2 89.9 270.4L89.9 270.4Q90.5 271.6 91.0 272.8L91.0 272.8Q90.9 271.8 90.8 270.7L90.8 270.7Q90.7 268.2 90.6 265.8Q90.5 263.4 90.5 261.8L90.5 261.8L90.5 242.3L99.0 242.3L99.0 283L89.7 283L78.0 264.3Q76.7 262.2 75.6 260.2Q74.5 258.2 73.3 255.8L73.3 255.8Q72.6 254.4 71.7 252.5L71.7 252.5Q71.8 254.2 71.9 255.8L71.9 255.8Q72.0 258.5 72.1 260.7Q72.2 262.9 72.2 264.3L72.2 264.3L72.2 283ZM115.6 283.4L115.6 283.4Q112.4 283.4 110.0 282.0Q107.7 280.6 106.4 278.0Q105.1 275.5 105.1 271.9L105.1 271.9L105.1 252.4L113.3 252.4L113.3 270.4Q113.3 273.3 114.7 274.9Q116.2 276.5 118.8 276.5L118.8 276.5Q120.5 276.5 121.9 275.8Q123.2 275.0 124.0 273.6Q124.7 272.1 124.7 270.1L124.7 270.1L124.7 252.4L133.0 252.4L133.0 283L125.2 283L125.1 276.6Q123.9 279.6 121.9 281.3L121.9 281.3Q119.4 283.4 115.6 283.4ZM147.0 283L138.8 283L138.8 252.4L146.4 252.4L146.7 258.4Q147.4 256.7 148.3 255.4L148.3 255.4Q149.7 253.7 151.5 252.8Q153.4 252.0 155.5 252.0L155.5 252.0Q158.8 252.0 160.8 254.0L160.8 254.0Q162.4 255.7 163.3 258.8L163.3 258.8Q164.0 257.0 165.1 255.7L165.1 255.7Q166.6 253.8 168.7 252.9Q170.8 252.0 173.2 252.0L173.2 252.0Q176.0 252.0 178.2 253.2Q180.4 254.4 181.6 256.7Q182.9 259.0 182.9 262.4L182.9 262.4L182.9 283L174.7 283L174.7 263.9Q174.7 261.3 173.3 260.1Q171.9 258.8 169.8 258.8L169.8 258.8Q168.3 258.8 167.2 259.5Q166.0 260.2 165.4 261.4Q164.8 262.6 164.8 264.2L164.8 264.2L164.8 283L156.9 283L156.9 263.7Q156.9 261.5 155.6 260.2Q154.2 258.8 152.1 258.8L152.1 258.8Q150.7 258.8 149.5 259.5Q148.3 260.1 147.7 261.4Q147.0 262.7 147.0 264.5L147.0 264.5L147.0 283ZM202.6 283.6L202.6 283.6Q197.9 283.6 194.5 281.7Q191.1 279.8 189.3 276.2Q187.5 272.7 187.5 267.9L187.5 267.9Q187.5 263.1 189.3 259.6Q191.1 256.0 194.4 254.0Q197.7 252.0 202.2 252.0L202.2 252.0Q205.2 252.0 207.8 253.0Q210.4 254.0 212.4 255.9Q214.3 257.8 215.4 260.7Q216.5 263.6 216.5 267.6L216.5 267.6L216.5 269.8L195.6 269.8Q195.7 272.2 196.5 273.8L196.5 273.8Q197.4 275.6 199.0 276.5Q200.6 277.4 202.7 277.4L202.7 277.4Q204.2 277.4 205.4 277.0Q206.5 276.6 207.4 275.8Q208.2 275.0 208.6 273.8L208.6 273.8L216.1 275.2Q215.3 277.7 213.5 279.6Q211.7 281.5 208.9 282.6Q206.2 283.6 202.6 283.6ZM195.7 264.7L195.7 264.7L208.6 264.7Q208.5 263.2 208.0 261.9L208.0 261.9Q207.2 260.2 205.8 259.2Q204.4 258.2 202.3 258.2L202.3 258.2Q200.1 258.2 198.6 259.2Q197.2 260.2 196.4 261.9L196.4 261.9Q195.8 263.1 195.7 264.7ZM229.2 283L221.0 283L221.0 252.4L229.0 252.4L229.0 257.8L229.3 257.8Q230.1 254.9 232.1 253.5Q234.1 252.0 236.7 252.0L236.7 252.0Q237.3 252.0 238.0 252.1Q238.8 252.2 239.3 252.3L239.3 252.3L239.3 259.6Q238.8 259.4 237.7 259.3Q236.7 259.2 235.8 259.2L235.8 259.2Q233.9 259.2 232.4 260.0Q230.9 260.8 230.1 262.3Q229.2 263.7 229.2 265.6L229.2 265.6L229.2 283ZM250.9 283L242.7 283L242.7 252.4L250.9 252.4L250.9 283ZM246.8 248.4L246.8 248.4Q245.0 248.4 243.6 247.2Q242.3 246.0 242.3 244.2L242.3 244.2Q242.3 242.5 243.6 241.2Q245.0 240.0 246.8 240.0L246.8 240.0Q248.7 240.0 250.0 241.2Q251.3 242.4 251.3 244.2L251.3 244.2Q251.3 246.0 250.0 247.2Q248.7 248.4 246.8 248.4ZM270.4 283.6L270.4 283.6Q265.8 283.6 262.5 281.6Q259.1 279.6 257.3 276.1Q255.5 272.6 255.5 267.9L255.5 267.9Q255.5 263.1 257.3 259.6Q259.1 256.0 262.5 254.0Q265.8 252.0 270.4 252.0L270.4 252.0Q273.2 252.0 275.4 252.8Q277.7 253.5 279.5 254.8Q281.3 256.1 282.4 258.0Q283.6 259.9 284.0 262.2L284.0 262.2L276.4 263.6Q276.2 262.4 275.6 261.5Q275.1 260.6 274.4 259.9Q273.6 259.2 272.7 258.9Q271.7 258.5 270.5 258.5L270.5 258.5Q268.3 258.5 266.8 259.7Q265.4 260.9 264.6 263.0Q263.9 265.1 263.9 267.8L263.9 267.8Q263.9 270.5 264.6 272.6Q265.4 274.7 266.8 275.9Q268.3 277.1 270.5 277.1L270.5 277.1Q271.7 277.1 272.7 276.8Q273.7 276.4 274.4 275.7Q275.2 275.0 275.7 274.0Q276.2 273.0 276.5 271.8L276.5 271.8L284.1 273.2Q283.7 275.6 282.5 277.5Q281.4 279.4 279.6 280.8Q277.8 282.2 275.5 282.9Q273.2 283.6 270.4 283.6ZM297.1 283.6L297.1 283.6Q294.2 283.6 291.9 282.6Q289.6 281.6 288.3 279.5Q287.0 277.5 287.0 274.4L287.0 274.4Q287.0 271.9 287.9 270.2Q288.8 268.5 290.5 267.4Q292.1 266.4 294.2 265.8Q296.2 265.3 298.5 265.1L298.5 265.1Q301.2 264.8 302.8 264.6Q304.4 264.3 305.2 263.8Q305.9 263.3 305.9 262.3L305.9 262.3L305.9 262.2Q305.9 260.9 305.4 260.0Q304.8 259.1 303.7 258.6Q302.7 258.1 301.1 258.1L301.1 258.1Q299.5 258.1 298.4 258.6Q297.2 259.1 296.4 259.9Q295.7 260.7 295.4 261.6L295.4 261.6L287.8 260.4Q288.6 257.7 290.5 255.9Q292.3 254.0 295.0 253.0Q297.7 252.0 301.2 252.0L301.2 252.0Q303.6 252.0 305.9 252.6Q308.3 253.2 310.1 254.5Q312.0 255.7 313.0 257.7Q314.1 259.6 314.1 262.4L314.1 262.4L314.1 283L306.3 283L306.3 278.8L306.1 278.8Q305.3 280.2 304.1 281.3Q302.9 282.3 301.1 283.0Q299.4 283.6 297.1 283.6ZM299.5 277.8L299.5 277.8Q301.4 277.8 302.9 277.1Q304.3 276.3 305.1 275.0Q306.0 273.7 306.0 272.1L306.0 272.1L306.0 268.8Q305.6 269.0 304.9 269.2Q304.1 269.5 303.2 269.6Q302.3 269.8 301.5 269.9Q300.6 270.1 299.9 270.1L299.9 270.1Q298.4 270.4 297.2 270.9Q296.1 271.4 295.5 272.2Q294.8 273.0 294.8 274.2L294.8 274.2Q294.8 275.4 295.4 276.2Q296.0 277.0 297.1 277.4Q298.1 277.8 299.5 277.8ZM320.0 242.3L328.2 242.3L328.2 283L320.0 283L320.0 242.3Z M355.0 283L346.7 283L346.7 242.3L359.5 242.3L366.1 261.0Q366.5 262.3 367.0 264.4Q367.6 266.4 368.1 268.8L368.1 268.8Q368.7 271.2 369.1 273.4L369.1 273.4Q369.6 271.2 370.1 268.9L370.1 268.9Q370.7 266.5 371.2 264.4Q371.7 262.3 372.1 261.0L372.1 261.0L378.7 242.3L391.5 242.3L391.5 283L383.1 283L383.1 263.8Q383.1 262.5 383.2 260.5Q383.2 258.5 383.3 256.2Q383.3 253.9 383.4 251.5L383.4 251.5Q383.4 250.5 383.4 249.4L383.4 249.4Q383.1 250.6 382.8 251.8L382.8 251.8Q382.2 254.2 381.6 256.5Q380.9 258.7 380.4 260.6Q379.8 262.5 379.4 263.8L379.4 263.8L372.6 283L365.6 283L358.7 263.8Q358.3 262.5 357.7 260.7Q357.2 258.8 356.5 256.5Q355.9 254.3 355.2 251.8L355.2 251.8Q354.9 250.8 354.7 249.8L354.7 249.8Q354.7 250.5 354.7 251.4L354.7 251.4Q354.8 253.7 354.8 256.1Q354.9 258.4 354.9 260.4Q355.0 262.4 355.0 263.8L355.0 263.8L355.0 283ZM411.4 283.6L411.4 283.6Q406.7 283.6 403.3 281.7Q399.9 279.8 398.1 276.2Q396.3 272.7 396.3 267.9L396.3 267.9Q396.3 263.1 398.1 259.6Q399.9 256.0 403.2 254.0Q406.5 252.0 411.0 252.0L411.0 252.0Q414.0 252.0 416.6 253.0Q419.2 254.0 421.1 255.9Q423.1 257.8 424.2 260.7Q425.3 263.6 425.3 267.6L425.3 267.6L425.3 269.8L404.4 269.8Q404.5 272.2 405.3 273.8L405.3 273.8Q406.2 275.6 407.8 276.5Q409.4 277.4 411.5 277.4L411.5 277.4Q412.9 277.4 414.1 277.0Q415.3 276.6 416.1 275.8Q417.0 275.0 417.4 273.8L417.4 273.8L424.8 275.2Q424.1 277.7 422.3 279.6Q420.4 281.5 417.7 282.6Q414.9 283.6 411.4 283.6ZM404.4 264.7L404.4 264.7L417.4 264.7Q417.2 263.2 416.7 261.9L416.7 261.9Q416.0 260.2 414.6 259.2Q413.1 258.2 411.0 258.2L411.0 258.2Q408.9 258.2 407.4 259.2Q405.9 260.2 405.2 261.9L405.2 261.9Q404.6 263.1 404.4 264.7ZM439.3 252.4L445.0 252.4L445.0 258.7L439.3 258.7L439.3 274.1Q439.3 275.5 439.9 276.2Q440.5 276.9 442.0 276.9L442.0 276.9Q442.5 276.9 443.4 276.8Q444.2 276.7 444.6 276.5L444.6 276.5L445.8 282.7Q444.4 283.1 443.1 283.3Q441.7 283.4 440.5 283.4L440.5 283.4Q435.9 283.4 433.5 281.2Q431.0 279.0 431.0 274.8L431.0 274.8L431.0 258.7L426.8 258.7L426.8 252.4L431.0 252.4L431.0 245.2L439.3 245.2L439.3 252.4ZM457.4 265.3L457.4 265.3L457.4 283L449.2 283L449.2 242.3L457.2 242.3L457.2 258.3Q458.4 255.7 460.2 254.1L460.2 254.1Q462.7 252.0 466.5 252.0L466.5 252.0Q469.7 252.0 472.1 253.4Q474.4 254.8 475.8 257.4Q477.1 260.0 477.1 263.6L477.1 263.6L477.1 283L468.8 283L468.8 265.0Q468.8 262.1 467.4 260.5Q465.9 258.9 463.3 258.9L463.3 258.9Q461.6 258.9 460.2 259.7Q458.9 260.4 458.1 261.8Q457.4 263.3 457.4 265.3ZM496.6 283.6L496.6 283.6Q492.0 283.6 488.6 281.6Q485.3 279.6 483.5 276.1Q481.6 272.6 481.6 267.9L481.6 267.9Q481.6 263.1 483.5 259.6Q485.3 256.0 488.6 254.0Q492.0 252.0 496.6 252.0L496.6 252.0Q501.2 252.0 504.6 254.0Q507.9 256.0 509.7 259.6Q511.6 263.1 511.6 267.9L511.6 267.9Q511.6 272.6 509.7 276.1Q507.9 279.6 504.6 281.6Q501.2 283.6 496.6 283.6ZM496.6 277.1L496.6 277.1Q498.8 277.1 500.3 275.9Q501.7 274.7 502.5 272.6Q503.2 270.5 503.2 267.8L503.2 267.8Q503.2 265.1 502.5 263.0Q501.7 260.9 500.3 259.7Q498.8 258.5 496.6 258.5L496.6 258.5Q494.4 258.5 492.9 259.7Q491.5 260.9 490.7 263.0Q490.0 265.1 490.0 267.8L490.0 267.8Q490.0 270.5 490.7 272.6Q491.5 274.7 492.9 275.9Q494.4 277.1 496.6 277.1ZM527.3 283.5L527.3 283.5Q523.8 283.5 521.0 281.7Q518.1 279.9 516.5 276.4Q514.9 272.9 514.9 267.8L514.9 267.8Q514.9 262.5 516.6 259.0Q518.3 255.5 521.1 253.8Q523.9 252.0 527.3 252.0L527.3 252.0Q529.9 252.0 531.6 252.9Q533.3 253.8 534.4 255.1Q535.5 256.4 536.0 257.6L536.0 257.6L536.2 257.6L536.2 242.3L544.4 242.3L544.4 283L536.4 283L536.4 278.1L536.0 278.1Q535.4 279.3 534.3 280.6Q533.3 281.8 531.5 282.7Q529.8 283.5 527.3 283.5ZM529.8 276.9L529.8 276.9Q531.9 276.9 533.4 275.8Q534.9 274.6 535.6 272.6Q536.4 270.5 536.4 267.7L536.4 267.7Q536.4 265.0 535.7 262.9Q534.9 260.9 533.4 259.7Q532.0 258.6 529.8 258.6L529.8 258.6Q527.7 258.6 526.2 259.8Q524.8 261.0 524.0 263.0Q523.3 265.1 523.3 267.7L523.3 267.7Q523.3 270.4 524.0 272.5Q524.8 274.6 526.2 275.8Q527.7 276.9 529.8 276.9ZM562.5 283.6L562.5 283.6Q558.8 283.6 555.9 282.5Q553.1 281.5 551.3 279.5Q549.5 277.5 549.0 274.6L549.0 274.6L556.6 273.3Q557.2 275.5 558.7 276.5Q560.2 277.6 562.7 277.6L562.7 277.6Q565.1 277.6 566.4 276.7Q567.8 275.8 567.8 274.4L567.8 274.4Q567.8 273.2 566.8 272.5Q565.8 271.7 563.8 271.3L563.8 271.3L558.6 270.2Q554.1 269.3 551.9 267.1Q549.8 265.0 549.8 261.5L549.8 261.5Q549.8 258.6 551.4 256.5Q553.0 254.3 555.9 253.2Q558.7 252.0 562.6 252.0L562.6 252.0Q566.2 252.0 568.9 253.0Q571.5 254.0 573.2 255.9Q574.8 257.7 575.3 260.2L575.3 260.2L568.1 261.5Q567.6 259.9 566.3 258.9Q565.0 257.9 562.7 257.9L562.7 257.9Q560.7 257.9 559.3 258.8Q558.0 259.6 558.0 261.0L558.0 261.0Q558.0 262.2 558.8 263.0Q559.7 263.8 561.9 264.2L561.9 264.2L567.4 265.3Q571.8 266.2 574.0 268.2Q576.1 270.3 576.1 273.6L576.1 273.6Q576.1 276.6 574.4 278.8Q572.6 281.1 569.6 282.3Q566.5 283.6 562.5 283.6Z M603.1 252.4L609.5 252.4L609.5 258.7L603.1 258.7L603.1 283L594.9 283L594.9 258.7L589.5 258.7L589.5 252.4L594.9 252.4L594.9 250.1Q594.9 246.8 596.2 244.7Q597.5 242.5 599.8 241.4Q602.0 240.3 604.9 240.3L604.9 240.3Q606.8 240.3 608.4 240.7Q610 241.0 610.7 241.2L610.7 241.2L609.3 247.4Q608.7 247.2 608.0 247.1Q607.3 247.0 606.5 247.0L606.5 247.0Q604.7 247.0 603.9 247.8Q603.1 248.7 603.1 250.4L603.1 250.4L603.1 252.4ZM627.3 283.6L627.3 283.6Q622.7 283.6 619.4 281.6Q616.0 279.6 614.2 276.1Q612.4 272.6 612.4 267.9L612.4 267.9Q612.4 263.1 614.2 259.6Q616.0 256.0 619.4 254.0Q622.7 252.0 627.3 252.0L627.3 252.0Q632.0 252.0 635.3 254.0Q638.7 256.0 640.5 259.6Q642.3 263.1 642.3 267.9L642.3 267.9Q642.3 272.6 640.5 276.1Q638.7 279.6 635.3 281.6Q632.0 283.6 627.3 283.6ZM627.3 277.1L627.3 277.1Q629.5 277.1 631.0 275.9Q632.5 274.7 633.2 272.6Q634.0 270.5 634.0 267.8L634.0 267.8Q634.0 265.1 633.2 263.0Q632.5 260.9 631.0 259.7Q629.5 258.5 627.3 258.5L627.3 258.5Q625.1 258.5 623.7 259.7Q622.2 260.9 621.5 263.0Q620.7 265.1 620.7 267.8L620.7 267.8Q620.7 270.5 621.5 272.6Q622.2 274.7 623.7 275.9Q625.1 277.1 627.3 277.1ZM655.1 283L646.9 283L646.9 252.4L654.8 252.4L654.8 257.8L655.1 257.8Q656.0 254.9 658.0 253.5Q660.0 252.0 662.5 252.0L662.5 252.0Q663.2 252.0 663.9 252.1Q664.6 252.2 665.2 252.3L665.2 252.3L665.2 259.6Q664.6 259.4 663.6 259.3Q662.6 259.2 661.6 259.2L661.6 259.2Q659.8 259.2 658.3 260.0Q656.8 260.8 655.9 262.3Q655.1 263.7 655.1 265.6L655.1 265.6L655.1 283Z M698.5 283.5L698.5 283.5Q693.1 283.5 688.8 281.1Q684.5 278.6 682.0 273.9Q679.6 269.3 679.6 262.7L679.6 262.7Q679.6 256.0 682.1 251.3Q684.5 246.6 688.8 244.2Q693.1 241.7 698.5 241.7L698.5 241.7Q702.0 241.7 705.0 242.7Q708.0 243.7 710.3 245.5Q712.6 247.4 714.1 250.1Q715.6 252.8 716.0 256.2L716.0 256.2L707.6 256.2Q707.3 254.5 706.5 253.2Q705.7 251.9 704.6 251.0Q703.4 250.1 701.9 249.6Q700.4 249.1 698.7 249.1L698.7 249.1Q695.5 249.1 693.1 250.7Q690.7 252.3 689.4 255.3Q688.0 258.3 688.0 262.7L688.0 262.7Q688.0 267.1 689.4 270.1Q690.7 273.1 693.1 274.6Q695.5 276.1 698.6 276.1L698.6 276.1Q700.4 276.1 701.9 275.7Q703.4 275.2 704.5 274.3Q705.7 273.3 706.5 272.0Q707.3 270.7 707.6 269.1L707.6 269.1L716.0 269.1Q715.7 271.9 714.4 274.5Q713.0 277.1 710.8 279.1Q708.5 281.2 705.4 282.4Q702.3 283.5 698.5 283.5ZM729.3 283.6L729.3 283.6Q726.4 283.6 724.1 282.6Q721.8 281.6 720.5 279.5Q719.2 277.5 719.2 274.4L719.2 274.4Q719.2 271.9 720.1 270.2Q721.1 268.5 722.7 267.4Q724.3 266.4 726.4 265.8Q728.4 265.3 730.7 265.1L730.7 265.1Q733.4 264.8 735.0 264.6Q736.6 264.3 737.4 263.8Q738.1 263.3 738.1 262.3L738.1 262.3L738.1 262.2Q738.1 260.9 737.6 260.0Q737.0 259.1 735.9 258.6Q734.9 258.1 733.3 258.1L733.3 258.1Q731.7 258.1 730.6 258.6Q729.4 259.1 728.7 259.9Q727.9 260.7 727.6 261.6L727.6 261.6L720.0 260.4Q720.8 257.7 722.7 255.9Q724.5 254.0 727.2 253.0Q729.9 252.0 733.4 252.0L733.4 252.0Q735.8 252.0 738.1 252.6Q740.5 253.2 742.3 254.5Q744.2 255.7 745.2 257.7Q746.3 259.6 746.3 262.4L746.3 262.4L746.3 283L738.6 283L738.6 278.8L738.3 278.8Q737.5 280.2 736.3 281.3Q735.1 282.3 733.3 283.0Q731.6 283.6 729.3 283.6ZM731.7 277.8L731.7 277.8Q733.6 277.8 735.1 277.1Q736.5 276.3 737.3 275.0Q738.2 273.7 738.2 272.1L738.2 272.1L738.2 268.8Q737.8 269.0 737.1 269.2Q736.3 269.5 735.4 269.6Q734.5 269.8 733.7 269.9Q732.8 270.1 732.1 270.1L732.1 270.1Q730.6 270.4 729.4 270.9Q728.3 271.4 727.7 272.2Q727.0 273.0 727.0 274.2L727.0 274.2Q727.0 275.4 727.6 276.2Q728.2 277.0 729.3 277.4Q730.3 277.8 731.7 277.8ZM752.2 242.3L760.4 242.3L760.4 283L752.2 283L752.2 242.3ZM779.9 283.6L779.9 283.6Q775.3 283.6 772.0 281.6Q768.6 279.6 766.8 276.1Q765.0 272.6 765.0 267.9L765.0 267.9Q765.0 263.1 766.8 259.6Q768.6 256.0 772.0 254.0Q775.3 252.0 779.9 252.0L779.9 252.0Q782.6 252.0 784.9 252.8Q787.2 253.5 789.0 254.8Q790.8 256.1 791.9 258.0Q793.1 259.9 793.5 262.2L793.5 262.2L785.9 263.6Q785.6 262.4 785.1 261.5Q784.6 260.6 783.9 259.9Q783.1 259.2 782.2 258.9Q781.2 258.5 780.0 258.5L780.0 258.5Q777.8 258.5 776.3 259.7Q774.8 260.9 774.1 263.0Q773.3 265.1 773.3 267.8L773.3 267.8Q773.3 270.5 774.1 272.6Q774.8 274.7 776.3 275.9Q777.8 277.1 780.0 277.1L780.0 277.1Q781.2 277.1 782.2 276.8Q783.2 276.4 783.9 275.7Q784.7 275.0 785.2 274.0Q785.7 273.0 785.9 271.8L785.9 271.8L793.6 273.2Q793.1 275.6 792.0 277.5Q790.8 279.4 789.1 280.8Q787.3 282.2 785.0 282.9Q782.7 283.6 779.9 283.6ZM808.6 283.4L808.6 283.4Q805.4 283.4 803.1 282.0Q800.7 280.6 799.4 278.0Q798.1 275.5 798.1 271.9L798.1 271.9L798.1 252.4L806.3 252.4L806.3 270.4Q806.3 273.3 807.8 274.9Q809.2 276.5 811.8 276.5L811.8 276.5Q813.6 276.5 814.9 275.8Q816.2 275.0 817.0 273.6Q817.7 272.1 817.7 270.1L817.7 270.1L817.7 252.4L826.0 252.4L826.0 283L818.2 283L818.1 276.6Q816.9 279.6 814.9 281.3L814.9 281.3Q812.4 283.4 808.6 283.4ZM831.8 242.3L840.0 242.3L840.0 283L831.8 283L831.8 242.3ZM854.4 283.6L854.4 283.6Q851.5 283.6 849.2 282.6Q846.9 281.6 845.6 279.5Q844.2 277.5 844.2 274.4L844.2 274.4Q844.2 271.9 845.2 270.2Q846.1 268.5 847.8 267.4Q849.4 266.4 851.4 265.8Q853.5 265.3 855.8 265.1L855.8 265.1Q858.4 264.8 860.1 264.6Q861.7 264.3 862.4 263.8Q863.2 263.3 863.2 262.3L863.2 262.3L863.2 262.2Q863.2 260.9 862.6 260.0Q862.1 259.1 861.0 258.6Q859.9 258.1 858.4 258.1L858.4 258.1Q856.8 258.1 855.6 258.6Q854.5 259.1 853.7 259.9Q853.0 260.7 852.6 261.6L852.6 261.6L845.1 260.4Q845.9 257.7 847.7 255.9Q849.6 254.0 852.3 253.0Q855.0 252.0 858.4 252.0L858.4 252.0Q860.9 252.0 863.2 252.6Q865.5 253.2 867.4 254.5Q869.2 255.7 870.3 257.7Q871.4 259.6 871.4 262.4L871.4 262.4L871.4 283L863.6 283L863.6 278.8L863.4 278.8Q862.6 280.2 861.4 281.3Q860.2 282.3 858.4 283.0Q856.7 283.6 854.4 283.6ZM856.7 277.8L856.7 277.8Q858.7 277.8 860.1 277.1Q861.6 276.3 862.4 275.0Q863.2 273.7 863.2 272.1L863.2 272.1L863.2 268.8Q862.9 269.0 862.2 269.2Q861.4 269.5 860.5 269.6Q859.6 269.8 858.7 269.9Q857.9 270.1 857.2 270.1L857.2 270.1Q855.7 270.4 854.5 270.9Q853.4 271.4 852.7 272.2Q852.1 273.0 852.1 274.2L852.1 274.2Q852.1 275.4 852.7 276.2Q853.3 277.0 854.4 277.4Q855.4 277.8 856.7 277.8ZM886.7 252.4L892.4 252.4L892.4 258.7L886.7 258.7L886.7 274.1Q886.7 275.5 887.4 276.2Q888.0 276.9 889.5 276.9L889.5 276.9Q890.0 276.9 890.8 276.8Q891.7 276.7 892.1 276.5L892.1 276.5L893.3 282.7Q891.9 283.1 890.6 283.3Q889.2 283.4 888.0 283.4L888.0 283.4Q883.4 283.4 881.0 281.2Q878.5 279.0 878.5 274.8L878.5 274.8L878.5 258.7L874.3 258.7L874.3 252.4L878.5 252.4L878.5 245.2L886.7 245.2L886.7 252.4ZM904.9 283L896.7 283L896.7 252.4L904.9 252.4L904.9 283ZM900.8 248.4L900.8 248.4Q898.9 248.4 897.6 247.2Q896.3 246.0 896.3 244.2L896.3 244.2Q896.3 242.5 897.6 241.2Q898.9 240.0 900.8 240.0L900.8 240.0Q902.6 240.0 903.9 241.2Q905.3 242.4 905.3 244.2L905.3 244.2Q905.3 246.0 903.9 247.2Q902.6 248.4 900.8 248.4ZM918.9 265.3L918.9 265.3L918.9 283L910.7 283L910.7 252.4L918.5 252.4L918.6 258.7Q919.7 255.8 921.8 254.1L921.8 254.1Q924.2 252.0 928.1 252.0L928.1 252.0Q931.3 252.0 933.6 253.4Q936.0 254.8 937.3 257.4Q938.6 260.0 938.6 263.6L938.6 263.6L938.6 283L930.4 283L930.4 265.0Q930.4 262.1 928.9 260.5Q927.5 258.9 924.9 258.9L924.9 258.9Q923.1 258.9 921.8 259.7Q920.4 260.4 919.7 261.8Q918.9 263.3 918.9 265.3ZM958.0 295.1L958.0 295.1Q954.2 295.1 951.4 294.1Q948.5 293.1 946.8 291.4Q945.0 289.8 944.3 287.6L944.3 287.6L951.4 285.6Q951.7 286.5 952.5 287.3Q953.3 288.1 954.7 288.6Q956.0 289.1 958.0 289.1L958.0 289.1Q961.1 289.1 962.9 287.7Q964.7 286.3 964.7 283.2L964.7 283.2L964.7 277.6L964.1 277.6Q963.5 278.8 962.5 280.0Q961.5 281.1 959.8 281.8Q958.1 282.6 955.6 282.6L955.6 282.6Q952.2 282.6 949.4 280.9Q946.5 279.3 944.9 276.0Q943.2 272.7 943.2 267.7L943.2 267.7Q943.2 262.5 944.9 259.0Q946.6 255.5 949.4 253.8Q952.3 252.0 955.6 252.0L955.6 252.0Q958.2 252.0 960.0 252.9Q961.7 253.8 962.8 255.1Q963.9 256.4 964.4 257.6L964.4 257.6L964.8 257.6L964.8 252.4L972.8 252.4L972.8 282.8Q972.8 286.9 970.9 289.6Q969.0 292.4 965.7 293.7Q962.4 295.1 958.0 295.1ZM958.2 276.3L958.2 276.3Q960.3 276.3 961.8 275.3Q963.2 274.3 964.0 272.3Q964.7 270.3 964.7 267.6L964.7 267.6Q964.7 264.9 964.0 262.9Q963.2 260.9 961.8 259.7Q960.3 258.6 958.2 258.6L958.2 258.6Q956.0 258.6 954.6 259.8Q953.1 260.9 952.3 263.0Q951.6 265.0 951.6 267.6L951.6 267.6Q951.6 270.3 952.3 272.2Q953.1 274.2 954.6 275.3Q956.1 276.3 958.2 276.3Z M70.6 347L61.3 347L75.3 306.3L86.2 306.3L100.5 347L91.2 347L88.1 337.5L73.6 337.5L70.6 347ZM75.7 331.0L85.9 331.0L84.7 327.3Q83.5 323.5 82.3 319L82.3 319Q81.5 316.1 80.6 312.8L80.6 312.8Q79.8 316.1 79.1 319.1L79.1 319.1Q78.0 323.6 76.8 327.3L76.8 327.3L75.7 331.0ZM113.6 316.4L119.4 316.4L119.4 322.7L113.6 322.7L113.6 338.1Q113.6 339.5 114.3 340.2Q114.9 340.9 116.4 340.9L116.4 340.9Q116.9 340.9 117.8 340.8Q118.6 340.7 119.0 340.5L119.0 340.5L120.2 346.7Q118.8 347.1 117.5 347.3Q116.1 347.4 114.9 347.4L114.9 347.4Q110.3 347.4 107.9 345.2Q105.4 343.0 105.4 338.8L105.4 338.8L105.4 322.7L101.2 322.7L101.2 316.4L105.4 316.4L105.4 309.2L113.6 309.2L113.6 316.4ZM131.8 347L123.6 347L123.6 316.4L131.2 316.4L131.5 322.4Q132.1 320.7 133.1 319.4L133.1 319.4Q134.5 317.7 136.3 316.8Q138.2 316.0 140.2 316.0L140.2 316.0Q143.5 316.0 145.6 318.0L145.6 318.0Q147.2 319.7 148.1 322.8L148.1 322.8Q148.8 321.0 149.8 319.7L149.8 319.7Q151.4 317.8 153.5 316.9Q155.6 316.0 157.9 316.0L157.9 316.0Q160.7 316.0 162.9 317.2Q165.1 318.4 166.4 320.7Q167.7 323.0 167.7 326.4L167.7 326.4L167.7 347L159.5 347L159.5 327.9Q159.5 325.3 158.1 324.1Q156.7 322.8 154.6 322.8L154.6 322.8Q153.1 322.8 151.9 323.5Q150.8 324.2 150.2 325.4Q149.6 326.6 149.6 328.2L149.6 328.2L149.6 347L141.7 347L141.7 327.7Q141.7 325.5 140.3 324.2Q139.0 322.8 136.9 322.8L136.9 322.8Q135.4 322.8 134.3 323.5Q133.1 324.1 132.4 325.4Q131.8 326.7 131.8 328.5L131.8 328.5L131.8 347ZM187.2 347.6L187.2 347.6Q182.6 347.6 179.3 345.6Q175.9 343.6 174.1 340.1Q172.3 336.6 172.3 331.9L172.3 331.9Q172.3 327.1 174.1 323.6Q175.9 320.0 179.3 318.0Q182.6 316.0 187.2 316.0L187.2 316.0Q191.9 316.0 195.2 318.0Q198.6 320.0 200.4 323.6Q202.2 327.1 202.2 331.9L202.2 331.9Q202.2 336.6 200.4 340.1Q198.6 343.6 195.2 345.6Q191.9 347.6 187.2 347.6ZM187.2 341.1L187.2 341.1Q189.4 341.1 190.9 339.9Q192.4 338.7 193.1 336.6Q193.9 334.5 193.9 331.8L193.9 331.8Q193.9 329.1 193.1 327.0Q192.4 324.9 190.9 323.7Q189.4 322.5 187.2 322.5L187.2 322.5Q185.0 322.5 183.6 323.7Q182.1 324.9 181.4 327.0Q180.6 329.1 180.6 331.8L180.6 331.8Q180.6 334.5 181.4 336.6Q182.1 338.7 183.6 339.9Q185.0 341.1 187.2 341.1ZM218.9 347.6L218.9 347.6Q215.2 347.6 212.4 346.5Q209.5 345.5 207.7 343.5Q205.9 341.5 205.4 338.6L205.4 338.6L213.0 337.3Q213.6 339.5 215.2 340.5Q216.7 341.6 219.2 341.6L219.2 341.6Q221.5 341.6 222.9 340.7Q224.2 339.8 224.2 338.4L224.2 338.4Q224.2 337.2 223.3 336.5Q222.3 335.7 220.3 335.3L220.3 335.3L215.0 334.2Q210.6 333.3 208.4 331.1Q206.2 329.0 206.2 325.5L206.2 325.5Q206.2 322.6 207.8 320.5Q209.4 318.3 212.3 317.2Q215.2 316.0 219.1 316.0L219.1 316.0Q222.7 316.0 225.3 317.0Q228.0 318.0 229.6 319.9Q231.3 321.7 231.8 324.2L231.8 324.2L224.5 325.5Q224.1 323.9 222.7 322.9Q221.4 321.9 219.2 321.9L219.2 321.9Q217.1 321.9 215.8 322.8Q214.4 323.6 214.4 325.0L214.4 325.0Q214.4 326.2 215.3 327.0Q216.2 327.8 218.4 328.2L218.4 328.2L223.8 329.3Q228.3 330.2 230.4 332.2Q232.6 334.3 232.6 337.6L232.6 337.6Q232.6 340.6 230.8 342.8Q229.1 345.1 226.0 346.3Q222.9 347.6 218.9 347.6ZM245.2 358.4L237.0 358.4L237.0 316.4L245.1 316.4L245.1 321.6L245.5 321.6Q246.1 320.4 247.1 319.1Q248.2 317.8 249.9 316.9Q251.6 316.0 254.2 316.0L254.2 316.0Q257.6 316.0 260.4 317.8Q263.2 319.5 264.9 323.0Q266.6 326.5 266.6 331.8L266.6 331.8Q266.6 336.9 264.9 340.4Q263.3 343.9 260.5 345.7Q257.7 347.5 254.1 347.5L254.1 347.5Q251.7 347.5 249.9 346.7Q248.2 345.8 247.1 344.6Q246.1 343.3 245.5 342.1L245.5 342.1L245.2 342.1L245.2 358.4ZM251.6 340.9L251.6 340.9Q253.8 340.9 255.2 339.8Q256.7 338.6 257.4 336.5Q258.2 334.4 258.2 331.7L258.2 331.7Q258.2 329.1 257.4 327.0Q256.7 325.0 255.2 323.8Q253.8 322.6 251.6 322.6L251.6 322.6Q249.5 322.6 248.0 323.7Q246.6 324.9 245.8 326.9Q245.0 329.0 245.0 331.7L245.0 331.7Q245.0 334.5 245.8 336.6Q246.6 338.6 248.1 339.8Q249.6 340.9 251.6 340.9ZM279.4 329.3L279.4 329.3L279.4 347L271.2 347L271.2 306.3L279.2 306.3L279.2 322.3Q280.4 319.7 282.3 318.1L282.3 318.1Q284.7 316.0 288.6 316.0L288.6 316.0Q291.7 316.0 294.1 317.4Q296.5 318.8 297.8 321.4Q299.1 324.0 299.1 327.6L299.1 327.6L299.1 347L290.9 347L290.9 329.0Q290.9 326.1 289.4 324.5Q287.9 322.9 285.3 322.9L285.3 322.9Q283.6 322.9 282.3 323.7Q280.9 324.4 280.2 325.8Q279.4 327.3 279.4 329.3ZM318.8 347.6L318.8 347.6Q314.1 347.6 310.7 345.7Q307.3 343.8 305.5 340.2Q303.7 336.7 303.7 331.9L303.7 331.9Q303.7 327.1 305.5 323.6Q307.3 320.0 310.6 318.0Q313.9 316.0 318.4 316.0L318.4 316.0Q321.4 316.0 324.0 317.0Q326.6 318.0 328.5 319.9Q330.5 321.8 331.6 324.7Q332.7 327.6 332.7 331.6L332.7 331.6L332.7 333.8L311.8 333.8Q311.9 336.2 312.7 337.8L312.7 337.8Q313.6 339.6 315.2 340.5Q316.8 341.4 318.9 341.4L318.9 341.4Q320.3 341.4 321.5 341.0Q322.7 340.6 323.5 339.8Q324.4 339.0 324.8 337.8L324.8 337.8L332.2 339.2Q331.5 341.7 329.7 343.6Q327.8 345.5 325.1 346.6Q322.3 347.6 318.8 347.6ZM311.8 328.7L311.8 328.7L324.8 328.7Q324.6 327.2 324.1 325.9L324.1 325.9Q323.4 324.2 322.0 323.2Q320.5 322.2 318.4 322.2L318.4 322.2Q316.3 322.2 314.8 323.2Q313.3 324.2 312.6 325.9L312.6 325.9Q312.0 327.1 311.8 328.7ZM345.4 347L337.2 347L337.2 316.4L345.1 316.4L345.1 321.8L345.5 321.8Q346.3 318.9 348.3 317.5Q350.3 316.0 352.8 316.0L352.8 316.0Q353.5 316.0 354.2 316.1Q354.9 316.2 355.5 316.3L355.5 316.3L355.5 323.6Q354.9 323.4 353.9 323.3Q352.9 323.2 351.9 323.2L351.9 323.2Q350.1 323.2 348.6 324.0Q347.1 324.8 346.2 326.3Q345.4 327.7 345.4 329.6L345.4 329.6L345.4 347ZM367.1 347L358.9 347L358.9 316.4L367.1 316.4L367.1 347ZM363.0 312.4L363.0 312.4Q361.1 312.4 359.8 311.2Q358.5 310.0 358.5 308.2L358.5 308.2Q358.5 306.5 359.8 305.2Q361.1 304.0 363.0 304.0L363.0 304.0Q364.8 304.0 366.2 305.2Q367.5 306.4 367.5 308.2L367.5 308.2Q367.5 310.0 366.2 311.2Q364.8 312.4 363.0 312.4ZM386.6 347.6L386.6 347.6Q382.0 347.6 378.6 345.6Q375.3 343.6 373.5 340.1Q371.6 336.6 371.6 331.9L371.6 331.9Q371.6 327.1 373.5 323.6Q375.3 320.0 378.6 318.0Q382.0 316.0 386.6 316.0L386.6 316.0Q389.3 316.0 391.6 316.8Q393.9 317.5 395.7 318.8Q397.5 320.1 398.6 322.0Q399.8 323.9 400.2 326.2L400.2 326.2L392.6 327.6Q392.3 326.4 391.8 325.5Q391.3 324.6 390.5 323.9Q389.8 323.2 388.8 322.9Q387.9 322.5 386.7 322.5L386.7 322.5Q384.5 322.5 383.0 323.7Q381.5 324.9 380.8 327.0Q380.0 329.1 380.0 331.8L380.0 331.8Q380.0 334.5 380.8 336.6Q381.5 338.7 383.0 339.9Q384.5 341.1 386.7 341.1L386.7 341.1Q387.9 341.1 388.8 340.8Q389.8 340.4 390.6 339.7Q391.4 339.0 391.9 338.0Q392.4 337.0 392.6 335.8L392.6 335.8L400.2 337.2Q399.8 339.6 398.7 341.5Q397.5 343.4 395.7 344.8Q394.0 346.2 391.6 346.9Q389.3 347.6 386.6 347.6Z M442.6 347L416.7 347L416.7 306.3L425.0 306.3L425.0 340.1L442.6 340.1L442.6 347ZM455.6 347.6L455.6 347.6Q452.7 347.6 450.4 346.6Q448.1 345.6 446.7 343.5Q445.4 341.5 445.4 338.4L445.4 338.4Q445.4 335.9 446.3 334.2Q447.3 332.5 448.9 331.4Q450.5 330.4 452.6 329.8Q454.7 329.3 456.9 329.1L456.9 329.1Q459.6 328.8 461.2 328.6Q462.8 328.3 463.6 327.8Q464.4 327.3 464.4 326.3L464.4 326.3L464.4 326.2Q464.4 324.9 463.8 324.0Q463.3 323.1 462.2 322.6Q461.1 322.1 459.6 322.1L459.6 322.1Q458.0 322.1 456.8 322.6Q455.6 323.1 454.9 323.9Q454.2 324.7 453.8 325.6L453.8 325.6L446.3 324.4Q447.1 321.7 448.9 319.9Q450.7 318.0 453.5 317.0Q456.2 316.0 459.6 316.0L459.6 316.0Q462.1 316.0 464.4 316.6Q466.7 317.2 468.5 318.5Q470.4 319.7 471.5 321.7Q472.6 323.6 472.6 326.4L472.6 326.4L472.6 347L464.8 347L464.8 342.8L464.5 342.8Q463.8 344.2 462.5 345.3Q461.3 346.3 459.6 347.0Q457.8 347.6 455.6 347.6ZM457.9 341.8L457.9 341.8Q459.8 341.8 461.3 341.1Q462.8 340.3 463.6 339.0Q464.4 337.7 464.4 336.1L464.4 336.1L464.4 332.8Q464.1 333.0 463.3 333.2Q462.6 333.5 461.7 333.6Q460.8 333.8 459.9 333.9Q459.0 334.1 458.3 334.1L458.3 334.1Q456.8 334.4 455.7 334.9Q454.5 335.4 453.9 336.2Q453.3 337.0 453.3 338.2L453.3 338.2Q453.3 339.4 453.9 340.2Q454.5 341.0 455.5 341.4Q456.6 341.8 457.9 341.8ZM487.9 316.4L493.6 316.4L493.6 322.7L487.9 322.7L487.9 338.1Q487.9 339.5 488.5 340.2Q489.2 340.9 490.7 340.9L490.7 340.9Q491.2 340.9 492.0 340.8Q492.8 340.7 493.3 340.5L493.3 340.5L494.5 346.7Q493.1 347.1 491.7 347.3Q490.4 347.4 489.2 347.4L489.2 347.4Q484.6 347.4 482.1 345.2Q479.7 343.0 479.7 338.8L479.7 338.8L479.7 322.7L475.5 322.7L475.5 316.4L479.7 316.4L479.7 309.2L487.9 309.2L487.9 316.4ZM511.6 347.6L511.6 347.6Q507.0 347.6 503.6 345.7Q500.2 343.8 498.4 340.2Q496.5 336.7 496.5 331.9L496.5 331.9Q496.5 327.1 498.3 323.6Q500.1 320.0 503.5 318.0Q506.8 316.0 511.2 316.0L511.2 316.0Q514.2 316.0 516.8 317.0Q519.4 318.0 521.4 319.9Q523.4 321.8 524.5 324.7Q525.6 327.6 525.6 331.6L525.6 331.6L525.6 333.8L504.7 333.8Q504.7 336.2 505.6 337.8L505.6 337.8Q506.4 339.6 508.0 340.5Q509.6 341.4 511.8 341.4L511.8 341.4Q513.2 341.4 514.4 341.0Q515.6 340.6 516.4 339.8Q517.2 339.0 517.7 337.8L517.7 337.8L525.1 339.2Q524.4 341.7 522.5 343.6Q520.7 345.5 518.0 346.6Q515.2 347.6 511.6 347.6ZM504.7 328.7L504.7 328.7L517.7 328.7Q517.5 327.2 517.0 325.9L517.0 325.9Q516.3 324.2 514.8 323.2Q513.4 322.2 511.3 322.2L511.3 322.2Q509.2 322.2 507.7 323.2Q506.2 324.2 505.4 325.9L505.4 325.9Q504.9 327.1 504.7 328.7ZM538.3 329.3L538.3 329.3L538.3 347L530.1 347L530.1 316.4L537.8 316.4L537.9 322.7Q539.1 319.8 541.1 318.1L541.1 318.1Q543.5 316.0 547.4 316.0L547.4 316.0Q550.6 316.0 553.0 317.4Q555.3 318.8 556.6 321.4Q557.9 324.0 557.9 327.6L557.9 327.6L557.9 347L549.7 347L549.7 329.0Q549.7 326.1 548.3 324.5Q546.8 322.9 544.2 322.9L544.2 322.9Q542.5 322.9 541.1 323.7Q539.8 324.4 539.0 325.8Q538.3 327.3 538.3 329.3ZM573.3 316.4L579.0 316.4L579.0 322.7L573.3 322.7L573.3 338.1Q573.3 339.5 573.9 340.2Q574.6 340.9 576.1 340.9L576.1 340.9Q576.5 340.9 577.4 340.8Q578.2 340.7 578.7 340.5L578.7 340.5L579.8 346.7Q578.5 347.1 577.1 347.3Q575.8 347.4 574.5 347.4L574.5 347.4Q569.9 347.4 567.5 345.2Q565.1 343.0 565.1 338.8L565.1 338.8L565.1 322.7L560.9 322.7L560.9 316.4L565.1 316.4L565.1 309.2L573.3 309.2L573.3 316.4Z M604.0 347L595.7 347L595.7 306.3L611.6 306.3Q616.2 306.3 619.5 307.9Q622.7 309.5 624.4 312.5Q626.2 315.5 626.2 319.5Q626.2 323.5 624.4 326.5Q622.7 329.4 619.4 330.9L619.4 330.9Q619.2 331.0 618.9 331.1L618.9 331.1L627.6 347L618.4 347L610.6 332.5L604.0 332.5L604.0 347ZM604.0 313.1L604.0 325.7L610.0 325.7Q612.6 325.7 614.3 325.0Q615.9 324.3 616.7 322.9Q617.5 321.5 617.5 319.5L617.5 319.5Q617.5 317.4 616.7 316.0Q615.9 314.6 614.2 313.9Q612.6 313.1 610.0 313.1L610.0 313.1L604.0 313.1ZM645.0 347.6L645.0 347.6Q640.3 347.6 636.9 345.7Q633.5 343.8 631.7 340.2Q629.9 336.7 629.9 331.9L629.9 331.9Q629.9 327.1 631.7 323.6Q633.5 320.0 636.8 318.0Q640.1 316.0 644.6 316.0L644.6 316.0Q647.6 316.0 650.2 317.0Q652.8 318.0 654.7 319.9Q656.7 321.8 657.8 324.7Q658.9 327.6 658.9 331.6L658.9 331.6L658.9 333.8L638.0 333.8Q638.1 336.2 638.9 337.8L638.9 337.8Q639.8 339.6 641.4 340.5Q643.0 341.4 645.1 341.4L645.1 341.4Q646.6 341.4 647.7 341.0Q648.9 340.6 649.7 339.8Q650.6 339.0 651.0 337.8L651.0 337.8L658.4 339.2Q657.7 341.7 655.9 343.6Q654.0 345.5 651.3 346.6Q648.5 347.6 645.0 347.6ZM638.0 328.7L638.0 328.7L651.0 328.7Q650.8 327.2 650.4 325.9L650.4 325.9Q649.6 324.2 648.2 323.2Q646.7 322.2 644.6 322.2L644.6 322.2Q642.5 322.2 641.0 323.2Q639.5 324.2 638.8 325.9L638.8 325.9Q638.2 327.1 638.0 328.7ZM663.4 306.3L671.6 306.3L671.6 347L663.4 347L663.4 306.3ZM691.3 347.6L691.3 347.6Q686.6 347.6 683.2 345.7Q679.8 343.8 678.0 340.2Q676.2 336.7 676.2 331.9L676.2 331.9Q676.2 327.1 678.0 323.6Q679.8 320.0 683.1 318.0Q686.4 316.0 690.9 316.0L690.9 316.0Q693.9 316.0 696.5 317.0Q699.1 318.0 701.0 319.9Q703.0 321.8 704.1 324.7Q705.2 327.6 705.2 331.6L705.2 331.6L705.2 333.8L684.3 333.8Q684.4 336.2 685.2 337.8L685.2 337.8Q686.1 339.6 687.7 340.5Q689.3 341.4 691.4 341.4L691.4 341.4Q692.8 341.4 694.0 341.0Q695.2 340.6 696.0 339.8Q696.9 339.0 697.3 337.8L697.3 337.8L704.7 339.2Q704.0 341.7 702.2 343.6Q700.3 345.5 697.6 346.6Q694.8 347.6 691.3 347.6ZM684.3 328.7L684.3 328.7L697.3 328.7Q697.1 327.2 696.6 325.9L696.6 325.9Q695.9 324.2 694.5 323.2Q693.0 322.2 690.9 322.2L690.9 322.2Q688.8 322.2 687.3 323.2Q685.8 324.2 685.1 325.9L685.1 325.9Q684.5 327.1 684.3 328.7ZM718.2 347.6L718.2 347.6Q715.3 347.6 713.0 346.6Q710.7 345.6 709.4 343.5Q708.1 341.5 708.1 338.4L708.1 338.4Q708.1 335.9 709.0 334.2Q709.9 332.5 711.6 331.4Q713.2 330.4 715.3 329.8Q717.3 329.3 719.6 329.1L719.6 329.1Q722.2 328.8 723.9 328.6Q725.5 328.3 726.2 327.8Q727.0 327.3 727.0 326.3L727.0 326.3L727.0 326.2Q727.0 324.9 726.5 324.0Q725.9 323.1 724.8 322.6Q723.7 322.1 722.2 322.1L722.2 322.1Q720.6 322.1 719.5 322.6Q718.3 323.1 717.5 323.9Q716.8 324.7 716.4 325.6L716.4 325.6L708.9 324.4Q709.7 321.7 711.6 319.9Q713.4 318.0 716.1 317.0Q718.8 316.0 722.2 316.0L722.2 316.0Q724.7 316.0 727.0 316.6Q729.4 317.2 731.2 318.5Q733.0 319.7 734.1 321.7Q735.2 323.6 735.2 326.4L735.2 326.4L735.2 347L727.4 347L727.4 342.8L727.2 342.8Q726.4 344.2 725.2 345.3Q724.0 346.3 722.2 347.0Q720.5 347.6 718.2 347.6ZM720.5 341.8L720.5 341.8Q722.5 341.8 724.0 341.1Q725.4 340.3 726.2 339.0Q727.1 337.7 727.1 336.1L727.1 336.1L727.1 332.8Q726.7 333.0 726.0 333.2Q725.2 333.5 724.3 333.6Q723.4 333.8 722.5 333.9Q721.7 334.1 721.0 334.1L721.0 334.1Q719.5 334.4 718.3 334.9Q717.2 335.4 716.6 336.2Q715.9 337.0 715.9 338.2L715.9 338.2Q715.9 339.4 716.5 340.2Q717.1 341.0 718.2 341.4Q719.2 341.8 720.5 341.8ZM753.2 347.6L753.2 347.6Q749.5 347.6 746.7 346.5Q743.8 345.5 742.0 343.5Q740.2 341.5 739.7 338.6L739.7 338.6L747.3 337.3Q747.9 339.5 749.5 340.5Q751.0 341.6 753.5 341.6L753.5 341.6Q755.8 341.6 757.2 340.7Q758.5 339.8 758.5 338.4L758.5 338.4Q758.5 337.2 757.6 336.5Q756.6 335.7 754.6 335.3L754.6 335.3L749.3 334.2Q744.9 333.3 742.7 331.1Q740.5 329.0 740.5 325.5L740.5 325.5Q740.5 322.6 742.1 320.5Q743.7 318.3 746.6 317.2Q749.5 316.0 753.4 316.0L753.4 316.0Q757.0 316.0 759.6 317.0Q762.3 318.0 763.9 319.9Q765.6 321.7 766.1 324.2L766.1 324.2L758.8 325.5Q758.4 323.9 757.0 322.9Q755.7 321.9 753.5 321.9L753.5 321.9Q751.4 321.9 750.1 322.8Q748.7 323.6 748.7 325.0L748.7 325.0Q748.7 326.2 749.6 327.0Q750.5 327.8 752.6 328.2L752.6 328.2L758.1 329.3Q762.6 330.2 764.7 332.2Q766.9 334.3 766.9 337.6L766.9 337.6Q766.9 340.6 765.1 342.8Q763.4 345.1 760.3 346.3Q757.2 347.6 753.2 347.6ZM785.1 347.6L785.1 347.6Q780.5 347.6 777.1 345.7Q773.7 343.8 771.9 340.2Q770.0 336.7 770.0 331.9L770.0 331.9Q770.0 327.1 771.8 323.6Q773.7 320.0 777.0 318.0Q780.3 316.0 784.7 316.0L784.7 316.0Q787.7 316.0 790.3 317.0Q792.9 318.0 794.9 319.9Q796.9 321.8 798.0 324.7Q799.1 327.6 799.1 331.6L799.1 331.6L799.1 333.8L778.2 333.8Q778.2 336.2 779.1 337.8L779.1 337.8Q779.9 339.6 781.5 340.5Q783.1 341.4 785.3 341.4L785.3 341.4Q786.7 341.4 787.9 341.0Q789.1 340.6 789.9 339.8Q790.7 339.0 791.2 337.8L791.2 337.8L798.6 339.2Q797.9 341.7 796.0 343.6Q794.2 345.5 791.5 346.6Q788.7 347.6 785.1 347.6ZM778.2 328.7L778.2 328.7L791.2 328.7Q791.0 327.2 790.5 325.9L790.5 325.9Q789.8 324.2 788.3 323.2Q786.9 322.2 784.8 322.2L784.8 322.2Q782.7 322.2 781.2 323.2Q779.7 324.2 778.9 325.9L778.9 325.9Q778.4 327.1 778.2 328.7Z "/></g><mask id="satori_om-id-0-2-2"><rect x="60" y="499" width="1080" height="71" fill="#fff"/></mask><mask id="satori_om-id-0-2-2-0"><rect x="60" y="499" width="161" height="71" fill="#fff"/></mask><mask id="satori_om-id-0-2-2-0-0"><rect x="60" y="499" width="161" height="29" fill="#fff"/></mask><g  ><path fill="#94a3b8" d="M72.9 522L61.8 522L61.8 520.4L67.6 514.1Q68.6 513.0 69.2 512.3Q69.9 511.5 70.2 510.7Q70.5 510.0 70.5 509.2L70.5 509.2Q70.5 508.3 70.1 507.6Q69.7 507.0 68.9 506.6Q68.2 506.2 67.2 506.2L67.2 506.2Q66.2 506.2 65.5 506.6Q64.8 507.0 64.4 507.8Q64.0 508.5 64.0 509.5L64.0 509.5L61.9 509.5Q61.9 507.9 62.6 506.8Q63.3 505.6 64.5 505.0Q65.7 504.3 67.3 504.3L67.3 504.3Q68.9 504.3 70.1 505.0Q71.3 505.6 71.9 506.7Q72.6 507.8 72.6 509.2L72.6 509.2Q72.6 510.1 72.3 511.0Q72.0 511.9 71.1 513.1Q70.2 514.2 68.7 515.8L68.7 515.8L64.9 519.9L64.9 520.0L72.9 520.0L72.9 522ZM82.2 522.2L82.2 522.2Q80.3 522.2 78.9 521.2Q77.5 520.1 76.8 518.1Q76.1 516.1 76.1 513.3L76.1 513.3Q76.1 510.4 76.8 508.4Q77.5 506.4 78.9 505.4Q80.3 504.3 82.2 504.3L82.2 504.3Q84.1 504.3 85.5 505.4Q86.9 506.4 87.6 508.4Q88.3 510.4 88.3 513.3L88.3 513.3Q88.3 516.1 87.6 518.1Q86.9 520.1 85.5 521.2Q84.2 522.2 82.2 522.2ZM82.2 520.3L82.2 520.3Q83.5 520.3 84.4 519.5Q85.3 518.6 85.7 517.1Q86.2 515.5 86.2 513.3L86.2 513.3Q86.2 511.1 85.7 509.5Q85.3 507.9 84.4 507.1Q83.5 506.2 82.2 506.2L82.2 506.2Q80.9 506.2 80.0 507.1Q79.1 507.9 78.7 509.5Q78.2 511.1 78.2 513.3L78.2 513.3Q78.2 515.5 78.7 517.1Q79.1 518.6 80.0 519.5Q80.9 520.3 82.2 520.3ZM102.7 522L91.6 522L91.6 520.4L97.4 514.1Q98.4 513.0 99 512.3Q99.6 511.5 100.0 510.7Q100.3 510.0 100.3 509.2L100.3 509.2Q100.3 508.3 99.9 507.6Q99.4 507.0 98.7 506.6Q98.0 506.2 97.0 506.2L97.0 506.2Q96.0 506.2 95.3 506.6Q94.6 507.0 94.2 507.8Q93.8 508.5 93.8 509.5L93.8 509.5L91.6 509.5Q91.6 507.9 92.3 506.8Q93.1 505.6 94.3 505.0Q95.5 504.3 97.1 504.3L97.1 504.3Q98.6 504.3 99.8 505.0Q101.0 505.6 101.7 506.7Q102.4 507.8 102.4 509.2L102.4 509.2Q102.4 510.1 102.1 511.0Q101.7 511.9 100.9 513.1Q100.0 514.2 98.5 515.8L98.5 515.8L94.7 519.9L94.7 520.0L102.7 520.0L102.7 522ZM111.4 522.2L111.4 522.2Q109.9 522.2 108.6 521.6Q107.4 521.0 106.7 520.0Q106.0 518.9 105.9 517.6L105.9 517.6L108.1 517.6Q108.1 518.4 108.6 519.0Q109.1 519.6 109.8 519.9Q110.5 520.3 111.4 520.3L111.4 520.3Q112.5 520.3 113.3 519.8Q114.1 519.3 114.6 518.4Q115.0 517.6 115.0 516.5L115.0 516.5Q115.0 515.3 114.6 514.4Q114.1 513.6 113.2 513.0Q112.4 512.5 111.3 512.5L111.3 512.5Q110.4 512.5 109.6 512.8Q108.8 513.0 108.3 513.4L108.3 513.4L106.2 513.2L107.2 504.5L116.4 504.5L116.4 506.5L109.1 506.5L108.5 511.6L108.6 511.6Q109.1 511.1 109.9 510.9Q110.8 510.6 111.7 510.6L111.7 510.6Q112.9 510.6 113.9 511.0Q114.9 511.4 115.6 512.2Q116.4 513.0 116.8 514.1Q117.2 515.2 117.2 516.4L117.2 516.4Q117.2 518.1 116.5 519.4Q115.7 520.7 114.4 521.5Q113.1 522.2 111.4 522.2Z "/></g><mask id="satori_om-id-0-2-2-0-1"><rect x="60" y="536" width="161" height="34" fill="#fff"/></mask><g  ><path fill="#cbd5e1" d="M65.5 563L60.7 563L68.0 552.6L61.4 542.6L66.2 542.6L68.4 546.0Q69.1 547.0 69.5 547.8Q69.9 548.6 70.2 549.3L70.2 549.3Q70.3 549.5 70.4 549.7L70.4 549.7Q70.5 549.5 70.6 549.3L70.6 549.3Q70.9 548.6 71.3 547.8Q71.7 547.0 72.4 546.0L72.4 546.0L74.6 542.6L79.4 542.6L72.8 552.5L80.0 563L75.0 563L72.2 558.7Q71.6 557.9 71.3 557.3Q70.9 556.7 70.7 556.1L70.7 556.1Q70.5 555.8 70.3 555.5L70.3 555.5Q70.2 555.8 70.0 556.1L70.0 556.1Q69.7 556.7 69.4 557.3Q69.0 557.9 68.4 558.7L68.4 558.7L65.5 563ZM86.5 563L82.4 563L82.4 547.7L86.5 547.7L86.5 563ZM84.5 545.7L84.5 545.7Q83.5 545.7 82.9 545.1Q82.2 544.5 82.2 543.6L82.2 543.6Q82.2 542.7 82.9 542.1Q83.5 541.5 84.5 541.5L84.5 541.5Q85.4 541.5 86.1 542.1Q86.7 542.7 86.7 543.6L86.7 543.6Q86.7 544.5 86.1 545.1Q85.4 545.7 84.5 545.7ZM94.3 563.3L94.3 563.3Q92.8 563.3 91.7 562.8Q90.5 562.3 89.9 561.3Q89.2 560.2 89.2 558.7L89.2 558.7Q89.2 557.4 89.7 556.6Q90.1 555.7 90.9 555.2Q91.8 554.7 92.8 554.4Q93.8 554.1 95.0 554.0L95.0 554.0Q96.3 553.9 97.1 553.8Q97.9 553.7 98.3 553.4Q98.7 553.2 98.7 552.7L98.7 552.7L98.7 552.6Q98.7 551.9 98.4 551.5Q98.1 551.0 97.6 550.8Q97.0 550.6 96.3 550.6L96.3 550.6Q95.5 550.6 94.9 550.8Q94.3 551.0 93.9 551.4Q93.6 551.8 93.4 552.3L93.4 552.3L89.6 551.7Q90.0 550.4 90.9 549.4Q91.9 548.5 93.2 548.0Q94.6 547.5 96.3 547.5L96.3 547.5Q97.5 547.5 98.7 547.8Q99.8 548.1 100.8 548.7Q101.7 549.3 102.2 550.3Q102.8 551.3 102.8 552.7L102.8 552.7L102.8 563L98.9 563L98.9 560.9L98.7 560.9Q98.4 561.6 97.8 562.1Q97.1 562.7 96.3 563.0Q95.4 563.3 94.3 563.3ZM95.4 560.4L95.4 560.4Q96.4 560.4 97.1 560.0Q97.9 559.7 98.3 559.0Q98.7 558.3 98.7 557.5L98.7 557.5L98.7 555.9Q98.5 556.0 98.1 556.1Q97.8 556.2 97.3 556.3Q96.9 556.4 96.4 556.5Q96.0 556.5 95.7 556.6L95.7 556.6Q94.9 556.7 94.3 556.9Q93.8 557.2 93.4 557.6Q93.1 558.0 93.1 558.6L93.1 558.6Q93.1 559.2 93.4 559.6Q93.7 560.0 94.2 560.2Q94.8 560.4 95.4 560.4ZM113.1 563.3L113.1 563.3Q110.8 563.3 109.1 562.3Q107.4 561.3 106.5 559.5Q105.6 557.8 105.6 555.4L105.6 555.4Q105.6 553.0 106.5 551.3Q107.4 549.5 109.1 548.5Q110.8 547.5 113.1 547.5L113.1 547.5Q115.4 547.5 117.1 548.5Q118.8 549.5 119.7 551.3Q120.6 553.0 120.6 555.4L120.6 555.4Q120.6 557.8 119.7 559.5Q118.8 561.3 117.1 562.3Q115.4 563.3 113.1 563.3ZM113.1 560.1L113.1 560.1Q114.2 560.1 114.9 559.5Q115.7 558.9 116.0 557.8Q116.4 556.7 116.4 555.4L116.4 555.4Q116.4 554.1 116.0 553.0Q115.7 552.0 114.9 551.4Q114.2 550.8 113.1 550.8L113.1 550.8Q112.0 550.8 111.3 551.4Q110.5 552.0 110.2 553.0Q109.8 554.1 109.8 555.4L109.8 555.4Q109.8 556.7 110.2 557.8Q110.5 558.9 111.3 559.5Q112.0 560.1 113.1 560.1ZM123.3 568.4L123.3 568.4L124.3 565.3L124.8 565.4Q125.6 565.7 126.2 565.6Q126.9 565.5 127.3 565.1Q127.7 564.6 127.7 563.9L127.7 563.9L127.9 563.0L122.1 547.7L126.5 547.7L129.0 555.6Q129.5 557.1 129.8 558.7L129.8 558.7Q129.9 559.2 130.0 559.7L130.0 559.7Q130.1 559.2 130.3 558.6L130.3 558.6Q130.6 557.1 131.1 555.6L131.1 555.6L133.8 547.7L138.1 547.7L131.6 564.8Q131.1 566.0 130.4 566.9Q129.7 567.8 128.6 568.3Q127.5 568.8 126.0 568.8L126.0 568.8Q125.2 568.8 124.5 568.7Q123.8 568.6 123.3 568.4ZM145.6 563.2L145.6 563.2Q144.0 563.2 142.8 562.5Q141.6 561.8 140.9 560.5Q140.3 559.2 140.3 557.4L140.3 557.4L140.3 547.7L144.4 547.7L144.4 556.7Q144.4 558.1 145.1 559.0Q145.9 559.8 147.2 559.8L147.2 559.8Q148.0 559.8 148.7 559.4Q149.4 559.0 149.7 558.3Q150.1 557.6 150.1 556.6L150.1 556.6L150.1 547.7L154.2 547.7L154.2 563L150.4 563L150.3 559.8Q149.7 561.3 148.7 562.2L148.7 562.2Q147.5 563.2 145.6 563.2ZM161.8 554.2L161.8 554.2L161.8 563L157.7 563L157.7 547.7L161.6 547.7L161.7 550.9Q162.2 549.4 163.3 548.6L163.3 548.6Q164.5 547.5 166.4 547.5L166.4 547.5Q168.0 547.5 169.2 548.2Q170.4 548.9 171.0 550.2Q171.7 551.5 171.7 553.3L171.7 553.3L171.7 563L167.6 563L167.6 554.0Q167.6 552.6 166.8 551.8Q166.1 551.0 164.8 551.0L164.8 551.0Q163.9 551.0 163.3 551.3Q162.6 551.7 162.2 552.4Q161.8 553.1 161.8 554.2Z M194.8 563L181.9 563L181.9 542.6L186.1 542.6L186.1 559.5L194.8 559.5L194.8 563ZM201.7 563L197.6 563L197.6 547.7L201.7 547.7L201.7 563ZM199.7 545.7L199.7 545.7Q198.7 545.7 198.1 545.1Q197.4 544.5 197.4 543.6L197.4 543.6Q197.4 542.7 198.1 542.1Q198.7 541.5 199.7 541.5L199.7 541.5Q200.6 541.5 201.3 542.1Q201.9 542.7 201.9 543.6L201.9 543.6Q201.9 544.5 201.3 545.1Q200.6 545.7 199.7 545.7ZM210.5 563.2L210.5 563.2Q208.9 563.2 207.7 562.5Q206.5 561.8 205.9 560.5Q205.2 559.2 205.2 557.4L205.2 557.4L205.2 547.7L209.3 547.7L209.3 556.7Q209.3 558.1 210.0 559.0Q210.8 559.8 212.1 559.8L212.1 559.8Q212.9 559.8 213.6 559.4Q214.3 559.0 214.7 558.3Q215.0 557.6 215.0 556.6L215.0 556.6L215.0 547.7L219.2 547.7L219.2 563L215.3 563L215.2 559.8Q214.6 561.3 213.6 562.2L213.6 562.2Q212.4 563.2 210.5 563.2Z "/></g><mask id="satori_ms-id-0-2-2-1-0" maskUnits="userSpaceOnUse"><rect x="0" y="0" width="1200" height="630" fill="#fff"/><path x="1070" y="500" width="70" height="70" fill="#000"  stroke-width="0" d="M1088,500 h34 a18,18 0 0 1 18,18 v34 a18,18 0 0 1 -18,18 h-34 a18,18 0 0 1 -18,-18 v-34 a18,18 0 0 1 18,-18"/></mask><defs><filter id="satori_s-id-0-2-2-1-0" x="-223.21428571428572%" y="-223.21428571428572%" width="546.4285714285714%" height="546.4285714285714%"><feGaussianBlur stdDeviation="12.5" result="b"/><feFlood flood-color="rgba(0,0,0,0.2)" in="SourceGraphic" result="f"/><feComposite in="f" in2="b" operator="in"/></filter></defs><g mask="url(#satori_ms-id-0-2-2-1-0)" filter="url(#satori_s-id-0-2-2-1-0)" opacity="1"><path x="1070" y="510" width="70" height="70" fill="#fff" stroke="#fff" stroke-width="0" d="M1088,510 h34 a18,18 0 0 1 18,18 v34 a18,18 0 0 1 -18,18 h-34 a18,18 0 0 1 -18,-18 v-34 a18,18 0 0 1 18,-18"/></g><mask id="satori_om-id-0-2-2-1"><rect x="1070" y="500" width="70" height="70" fill="#fff"/></mask><path x="1070" y="500" width="70" height="70" fill="#ffffff" d="M1088,500 h34 a18,18 0 0 1 18,18 v34 a18,18 0 0 1 -18,18 h-34 a18,18 0 0 1 -18,-18 v-34 a18,18 0 0 1 18,-18"/><clipPath id="satori_cp-id-0-2-2-1-0"><rect x="1087" y="517" width="36" height="36"/></clipPath><mask id="satori_om-id-0-2-2-1-0"><rect x="1087" y="517" width="36" height="36" fill="#fff"/></mask><image x="1087" y="517" width="36" height="36" href="data:image/svg+xml;utf8,%3Csvg  fill=%22none%22 stroke=%22%230f172a%22 stroke-width=%222%22 stroke-linecap=%22round%22 stroke-linejoin=%22round%22 xmlns=%22http://www.w3.org/2000/svg%22 width=%2236%22 height=%2236%22 viewBox=%220 0 24 24%22%3E%3Cpath d=%22M2 3h6a4 4 0 0 1 4 4v14a3 3 0 0 0-3-3H2z%22%3E%3C/path%3E%3Cpath d=%22M22 3h-6a4 4 0 0 0-4 4v14a3 3 0 0 1 3-3h7z%22%3E%3C/path%3E%3C/svg%3E" preserveAspectRatio="none" clip-path="url(#satori_cp-id-0-2-2-1-0)" mask="url(#satori_om-id-0-2-2-1-0)"/><mask id="satori_om-id-0-2-2-1-0-0"><rect x="1087" y="517" width="0" height="36" fill="#fff"/></mask><mask id="satori_om-id-0-2-2-1-0-1"><rect x="1087" y="517" width="0" height="36" fill="#fff"/></mask></svg>